HIERARCHY
ROOT RootJoint
{
    OFFSET   0.000000   0.000000   0.000000
    CHANNELS 6 Xposition Yposition Zposition Xrotation Yrotation Zrotation
    JOINT pelvis_lowerback
    {
        OFFSET   0.000000   0.093605   0.000000
        CHANNELS 3 Xrotation Yrotation Zrotation
        JOINT lowerback_torso
        {
            OFFSET   0.000000   0.100000   0.000000
            CHANNELS 3 Xrotation Yrotation Zrotation
            JOINT torso_head
            {
                OFFSET   0.000000   0.282350   0.000000
                CHANNELS 3 Xrotation Yrotation Zrotation
                End Site
                {
                    OFFSET   0.000000   0.192650   0.000000
                }
            }
            JOINT rTorso_Clavicle
            {
                OFFSET  -0.001000   0.157500   0.000000
                CHANNELS 3 Xrotation Yrotation Zrotation
                JOINT rShoulder
                {
                    OFFSET  -0.117647   0.000000   0.000000
                    CHANNELS 3 Xrotation Yrotation Zrotation
                    JOINT rElbow
                    {
                        OFFSET  -0.245000   0.000000   0.000000
                        CHANNELS 3 Xrotation Yrotation Zrotation
                        JOINT rWrist
                        {
                            OFFSET  -0.240000   0.000000   0.000000
                            CHANNELS 3 Xrotation Yrotation Zrotation
                            End Site
                            {
                                OFFSET  -0.116353  -0.002500   0.000000
                            }
                        }
                    }
                }
            }
            JOINT lTorso_Clavicle
            {
                OFFSET   0.001000   0.157500   0.000000
                CHANNELS 3 Xrotation Yrotation Zrotation
                JOINT lShoulder
                {
                    OFFSET   0.117647   0.000000   0.000000
                    CHANNELS 3 Xrotation Yrotation Zrotation
                    JOINT lElbow
                    {
                        OFFSET   0.245000   0.000000   0.000000
                        CHANNELS 3 Xrotation Yrotation Zrotation
                        JOINT lWrist
                        {
                            OFFSET   0.240000   0.000000   0.000000
                            CHANNELS 3 Xrotation Yrotation Zrotation
                            End Site
                            {
                                OFFSET   0.116353  -0.002500   0.000000
                            }
                        }
                    }
                }
            }
        }
    }
    JOINT rHip
    {
        OFFSET  -0.100000  -0.051395   0.000000
        CHANNELS 3 Xrotation Yrotation Zrotation
        JOINT rKnee
        {
            OFFSET   0.000000  -0.410000   0.000000
            CHANNELS 3 Xrotation Yrotation Zrotation
            JOINT rAnkle
            {
                OFFSET   0.000000  -0.390000   0.000000
                CHANNELS 3 Xrotation Yrotation Zrotation
                JOINT rToeJoint
                {
                    OFFSET   0.000000  -0.050000   0.130000
                    CHANNELS 3 Xrotation Yrotation Zrotation
                    End Site
                    {
                        OFFSET  -0.010000   0.002000   0.060000
                    }
                }
            }
        }
    }
    JOINT lHip
    {
        OFFSET   0.100000  -0.051395   0.000000
        CHANNELS 3 Xrotation Yrotation Zrotation
        JOINT lKnee
        {
            OFFSET   0.000000  -0.410000   0.000000
            CHANNELS 3 Xrotation Yrotation Zrotation
            JOINT lAnkle
            {
                OFFSET   0.000000  -0.390000   0.000000
                CHANNELS 3 Xrotation Yrotation Zrotation
                JOINT lToeJoint
                {
                    OFFSET   0.000000  -0.050000   0.130000
                    CHANNELS 3 Xrotation Yrotation Zrotation
                    End Site
                    {
                        OFFSET   0.010000   0.002000   0.060000
                    }
                }
            }
        }
    }
}
MOTION
Frames: 11
Frame Time:   0.008333
 -2.347180   0.902828   5.351375  -2.298305   1.367199   1.852547   4.184663  -0.137447  -6.668091   9.374843  -2.674725  -2.127967   2.542224  -0.161100  -0.124257   2.327592   6.176136  17.880390   3.326852  11.264282  39.339982   0.000856  19.495856  -0.001582  12.786962   2.261097  -0.356621   1.255178  -7.073325 -16.719173   3.655515 -14.797744 -32.071171  -0.003603 -23.109898  -0.002015  10.187402  -5.863770   2.337332 -19.874808  -2.599080  -9.203879  44.185384  -0.005553  -0.022961 -11.770744  -9.170655   0.747113  -2.761776   0.000035  -0.000294   2.897646   2.886300  -3.921919  16.192276  -0.000175  -0.003154 -16.322411   1.428859   3.393167  -0.736773  -0.000197  -0.000110
 -2.347282   0.902265   5.358870  -2.270870   1.597683   1.830171   4.162468  -0.204429  -6.620782   9.329604  -2.760187  -2.072766   2.506449  -0.110571  -0.198428   2.370404   6.078681  17.901278   3.411113  11.028343  39.270032   0.000729  19.372626  -0.001401  12.727132   2.271332  -0.410321   1.228416  -7.088040 -16.697463   3.383582 -14.967710 -31.998474  -0.003814 -23.437074  -0.002277  10.195422  -5.822411   2.351697 -20.374368  -2.365487  -9.126320  42.054792  -0.006364  -0.025636 -11.567350  -9.163602   0.830852  -2.821409   0.000251  -0.000455   3.499886   2.888419  -3.821525  15.947338  -0.000084  -0.003142 -16.581839   1.156061   3.160879  -0.905722  -0.000348  -0.000080
 -2.347396   0.901639   5.366340  -2.226022   1.819571   1.824193   4.140843  -0.266562  -6.581997   9.276626  -2.842173  -2.022753   2.468640  -0.061546  -0.272133   2.418510   5.983548  17.919193   3.495518  10.802030  39.207445   0.000606  19.253862  -0.001229  12.670660   2.266423  -0.446717   1.195760  -7.105455 -16.669043   3.123863 -15.134728 -31.929778  -0.003942 -23.751136  -0.002425  10.196395  -5.829958   2.370878 -20.885793  -2.123954  -9.080593  39.930833  -0.006855  -0.027558 -11.377761  -9.154011   0.909697  -2.843285   0.000281  -0.000444   4.079542   2.888259  -3.736717  15.706552  -0.000004  -0.003097 -16.826515   0.895528   2.935443  -1.097002  -0.000482  -0.000055
 -2.347543   0.900951   5.373821  -2.182611   2.037637   1.825290   4.125668  -0.329945  -6.544822   9.228653  -2.923643  -1.974257   2.433399  -0.015454  -0.341615   2.466581   5.892545  17.936093   3.576288  10.588232  39.150009   0.000491  19.141470  -0.001072  12.616695   2.252377  -0.474349   1.160345  -7.125505 -16.638377   2.878687 -15.294219 -31.862985  -0.003970 -24.046277  -0.002457  10.198870  -5.853119   2.398715 -21.404324  -1.886933  -9.053653  37.912140  -0.006912  -0.028533 -11.202386  -9.144606   0.982945  -2.863974   0.000298  -0.000429   4.650689   2.881467  -3.655518  15.485248   0.000065  -0.002992 -17.067008   0.646790   2.720363  -1.311778  -0.000589  -0.000033
 -2.347785   0.899787   5.381335  -2.133858   2.268225   1.754626   4.102327  -0.400401  -6.448222   9.175692  -3.006706  -1.898480   2.402272   0.027663  -0.403641   2.517658   5.798430  17.924477   3.656006  10.382900  39.088467   0.000417  19.036286  -0.000944  12.565091   2.238560  -0.492241   1.126767  -7.143411 -16.595868   2.648662 -15.446415 -31.802271  -0.003984 -24.325875  -0.002422  10.201307  -5.895727   2.420776 -21.935337  -1.670688  -8.972462  36.030722  -0.006879  -0.029070 -11.040251  -9.135128   1.051460  -2.892861   0.000335  -0.000450   5.223102   2.868632  -3.493091  15.309755   0.000119  -0.002803 -17.043471   0.408093   2.579053  -3.792538  -0.001001   0.000251
 -2.348006   0.898844   5.388910  -2.097134   2.498728   1.785003   4.089249  -0.469804  -6.439258   9.140169  -3.090051  -1.853962   2.371678   0.067423  -0.462300   2.565310   5.714146  17.953059   3.729748  10.191098  39.041154   0.000318  18.934528  -0.000814  12.515227   2.205961  -0.521667   1.089611  -7.164653 -16.564722   2.433073 -15.585935 -31.733760  -0.003863 -24.581688  -0.002356  10.206191  -5.915611   2.467212 -22.445678  -1.445588  -9.002478  34.252030  -0.006567  -0.028722 -10.888476  -9.126356   1.114757  -2.912829   0.000332  -0.000428   5.796482   2.865028  -3.433577  15.135833   0.000147  -0.002669 -17.427005   0.204460   2.347744  -3.500985  -0.000500   0.000366
 -2.348274   0.898003   5.396562  -2.061768   2.730924   1.818665   4.076895  -0.536476  -6.422625   9.110654  -3.170778  -1.815545   2.344087   0.104541  -0.520093   2.613773   5.633404  17.984361   3.800418  10.011099  39.003755   0.000220  18.839193  -0.000689  12.467435   2.173712  -0.535530   1.056659  -7.185389 -16.541388   2.232014 -15.717815 -31.676602  -0.003672 -24.821127  -0.002263  10.210564  -5.934398   2.508002 -22.938683  -1.231727  -9.030029  32.586902  -0.005962  -0.028068 -10.747313  -9.118300   1.173502  -2.933072   0.000329  -0.000411   6.352875   2.855856  -3.370911  14.988459   0.000168  -0.002491 -17.707714   0.003785   2.144398  -3.454671  -0.000365   0.000314
 -2.348584   0.897083   5.404313  -2.004411   2.909036   1.879699   4.015319  -0.563032  -6.441159   9.103143  -3.209254  -1.785442   2.315927   0.154122  -0.610954   2.679776   5.565862  18.032173   3.909989   9.845363  38.960736   0.000091  18.715510  -0.000512  12.454860   2.171996  -0.534015   1.039105  -7.203721 -16.528782   2.032348 -15.869657 -31.604111  -0.003588 -25.088815  -0.002255  10.207559  -5.895623   2.492516 -23.447241  -1.041817  -9.068779  30.896151  -0.004778  -0.026529 -10.485687  -9.051419   1.329071  -2.990979   0.000505  -0.000509   6.929897   2.855167  -3.332027  14.770920   0.000248  -0.002449 -17.933997  -0.208710   1.891279  -3.501591  -0.000345   0.000250
 -2.348940   0.896068   5.412126  -1.946221   3.080031   1.951260   3.954709  -0.586776  -6.466600   9.093435  -3.243910  -1.763970   2.288226   0.201981  -0.700637   2.748520   5.500899  18.083725   4.017141   9.686921  38.926887  -0.000021  18.596475  -0.000363  12.445422   2.156394  -0.506503   1.019299  -7.222920 -16.517011   1.843299 -16.015598 -31.537021  -0.003460 -25.341973  -0.002217  10.205048  -5.871922   2.477719 -23.958590  -0.864395  -9.104767  29.285688  -0.003469  -0.024860 -10.241601  -8.987313   1.474449  -3.036218   0.000592  -0.000541   7.503495   2.849245  -3.300207  14.565693   0.000316  -0.002370 -18.150870  -0.411237   1.648394  -3.624945  -0.000402   0.000201
 -2.349340   0.894966   5.420010  -1.890546   3.249753   2.029245   3.896575  -0.611786  -6.494469   9.084406  -3.279574  -1.746833   2.261982   0.246867  -0.785701   2.816209   5.438251  18.136191   4.119170   9.537115  38.899037  -0.000112  18.484098  -0.000245  12.436533   2.134749  -0.468063   0.999577  -7.242619 -16.507639   1.665985 -16.153598 -31.475647  -0.003290 -25.579030  -0.002142  10.202951  -5.855346   2.464558 -24.464574  -0.696125  -9.134248  27.771920  -0.002171  -0.023196 -10.014583  -8.926610   1.609698  -3.079372   0.000651  -0.000556   8.071813   2.835555  -3.270023  14.383147   0.000366  -0.002249 -18.361348  -0.606516   1.418556  -3.819607  -0.000492   0.000166
 -2.349778   0.893786   5.427974  -1.836089   3.418489   2.112392   3.839424  -0.637805  -6.523003   9.075943  -3.316102  -1.732597   2.237317   0.288769  -0.865644   2.881905   5.377856  18.188057   4.215764   9.395784  38.875445  -0.000182  18.378419  -0.000151  12.428002   2.110506  -0.425128   0.981226  -7.262017 -16.501253   1.500403 -16.283315 -31.420249  -0.003094 -25.800516  -0.002041  10.200891  -5.842045   2.450478 -24.960539  -0.536577  -9.156437  26.354069  -0.000939  -0.021560  -9.803266  -8.869156   1.735537  -3.120822   0.000690  -0.000559   8.633467   2.814584  -3.240182  14.223964   0.000399  -0.002098 -18.563595  -0.795288   1.201611  -4.082134  -0.000590   0.000146
